<?xml version="1.0" encoding="utf-8"?>
<!-- Generator: Adobe Illustrator 16.0.0, SVG Export Plug-In . SVG Version: 6.00 Build 0)  -->
<!DOCTYPE svg PUBLIC "-//W3C//DTD SVG 1.1 Tiny//EN" "http://www.w3.org/Graphics/SVG/1.1/DTD/svg11-tiny.dtd">
<svg version="1.1" baseProfile="tiny" xmlns="http://www.w3.org/2000/svg" xmlns:xlink="http://www.w3.org/1999/xlink" x="0px"
	 y="0px" width="21px" height="20px" viewBox="0 0 21 20" xml:space="preserve">
<g id="Layer_1" display="none">
	<image display="inline" width="21" height="20" xlink:href="tick.png" >
	</image>
</g>
<g id="Layer_2">
	<path fill="#F4785A" d="M17.361,2.211l-1.032,1.494l-6.151,8.898L6.814,8.562L5.311,9.813l4.188,5.031l0.751,0.968l0.805-1.038
		l6.52-9.432c0.927,1.332,1.479,2.929,1.479,4.657c0,4.604-3.837,8.35-8.553,8.35S1.947,14.604,1.947,10S5.784,1.65,10.5,1.65
		c1.749,0,3.376,0.517,4.732,1.4l1.217-1.537c-1.693-1.146-3.742-1.82-5.95-1.82C4.705-0.306-0.009,4.317-0.009,10
		S4.705,20.306,10.5,20.306S21.009,15.683,21.009,10C21.009,6.889,19.591,4.103,17.361,2.211z"/>
</g>
</svg>
