<?xml version="1.0" encoding="utf-8"?>
<!-- Generator: Adobe Illustrator 16.0.0, SVG Export Plug-In . SVG Version: 6.00 Build 0)  -->
<!DOCTYPE svg PUBLIC "-//W3C//DTD SVG 1.1 Tiny//EN" "http://www.w3.org/Graphics/SVG/1.1/DTD/svg11-tiny.dtd">
<svg version="1.1" baseProfile="tiny" id="Layer_1" xmlns="http://www.w3.org/2000/svg" xmlns:xlink="http://www.w3.org/1999/xlink"
	 x="0px" y="0px" width="21px" height="20.609px" viewBox="0 0 21 20.609" xml:space="preserve">
<g id="Layer_1_1_" display="none">
	<image display="inline" width="21" height="20" xlink:href="tick.png"  transform="matrix(1 0 0 1 0 -2.441406e-004)">
	</image>
</g>
<g id="Layer_2">
	<path fill="#1CA8C3" d="M17.361,2.515L16.329,4.01l-6.151,8.898L6.814,8.867l-1.503,1.251l4.188,5.03l0.751,0.969l0.805-1.039
		l6.521-9.432c0.927,1.332,1.479,2.93,1.479,4.657c0,4.604-3.838,8.351-8.554,8.351s-8.554-3.746-8.554-8.35s3.837-8.35,8.553-8.35
		c1.749,0,3.376,0.517,4.732,1.399l1.217-1.536c-1.693-1.146-3.742-1.82-5.95-1.82C4.705-0.001-0.009,4.622-0.009,10.304
		c0,5.684,4.714,10.307,10.509,10.307s10.509-4.623,10.509-10.307C21.009,7.194,19.591,4.408,17.361,2.515z"/>
</g>
</svg>
